<?xml version="1.0" standalone="no"?>
<!DOCTYPE svg PUBLIC "-//W3C//DTD SVG 20010904//EN"
 "http://www.w3.org/TR/2001/REC-SVG-20010904/DTD/svg10.dtd">
<svg version="1.0" xmlns="http://www.w3.org/2000/svg"
 width="512.000000pt" height="512.000000pt" viewBox="0 0 512.000000 512.000000"
 preserveAspectRatio="xMidYMid meet">

<g transform="translate(0.000000,512.000000) scale(0.100000,-0.100000)"
fill="#000000" stroke="none">
<path d="M2066 4150 c-309 -36 -599 -145 -848 -320 -119 -83 -324 -288 -410
-410 -81 -114 -195 -340 -237 -468 -17 -52 -40 -137 -51 -190 -26 -126 -45
-361 -36 -436 l8 -59 91 6 c51 4 113 9 138 13 l46 6 6 167 c4 131 11 187 31
266 38 152 99 315 117 315 5 0 9 -35 9 -78 0 -44 3 -121 7 -171 l6 -93 124
-83 c109 -72 130 -91 162 -143 l37 -60 149 47 150 46 3 51 3 52 90 11 c49 6
126 25 172 42 77 28 92 38 257 186 96 85 174 160 172 166 -2 5 -23 36 -47 68
-25 31 -45 62 -45 68 0 6 22 56 50 111 l50 99 -60 43 -60 42 -40 129 -41 129
78 83 78 83 73 1 c95 1 264 -25 350 -54 8 -3 -1 -17 -24 -38 -25 -23 -38 -45
-43 -74 -8 -39 -5 -45 29 -87 34 -41 39 -56 55 -154 l19 -108 93 -62 c130 -87
134 -87 214 -10 92 89 154 121 249 126 62 3 87 0 142 -21 37 -13 64 -19 61
-13 -4 6 -57 72 -118 146 -180 220 -191 239 -199 344 l-3 51 -79 42 c-159 85
-345 148 -534 179 -109 18 -342 25 -444 14z"/>
<path d="M3455 3955 c-65 -50 -82 -75 -69 -97 5 -8 126 -157 269 -332 143
-174 261 -320 262 -324 2 -4 -39 -31 -90 -59 -50 -29 -119 -68 -152 -87 l-60
-34 -169 64 c-92 35 -177 64 -188 64 -28 0 -108 -58 -108 -78 0 -9 64 -81 142
-159 l142 -142 13 -198 c8 -109 16 -204 19 -212 6 -17 96 -9 127 12 13 8 44
76 86 186 l66 173 168 58 c163 57 167 58 172 37 3 -12 34 -201 69 -420 43
-270 68 -403 78 -413 13 -14 24 -14 92 -1 42 8 83 20 91 27 21 18 24 32 121
568 l88 482 105 56 c244 129 390 264 391 361 0 34 -47 81 -93 94 -88 24 -287
-12 -480 -87 -70 -27 -97 -33 -113 -26 -11 6 -210 125 -442 266 -232 141 -434
259 -449 262 -23 4 -40 -4 -88 -41z m1424 -481 c57 -48 58 -136 1 -172 -18
-11 -20 -10 -20 20 -1 42 -30 106 -64 137 -19 18 -23 27 -14 33 25 15 67 8 97
-18z"/>
<path d="M2835 2769 c-545 -269 -1196 -516 -1700 -644 -297 -76 -386 -89 -595
-90 l-185 0 -60 30 c-84 42 -108 80 -103 165 4 69 46 175 106 262 66 98 54 91
-56 -32 -139 -155 -208 -268 -232 -384 -42 -204 130 -338 488 -377 117 -13
415 -7 567 11 633 74 1377 294 2098 619 54 25 52 13 37 211 l-10 124 -92 93
c-51 51 -95 93 -98 92 -3 0 -77 -36 -165 -80z"/>
<path d="M3871 2333 c-51 -148 -169 -229 -348 -240 -69 -5 -93 -2 -143 16
l-61 23 -102 -46 c-56 -25 -138 -60 -182 -79 l-80 -34 -6 -48 -5 -48 73 -61
c40 -33 73 -63 73 -66 0 -3 -29 -34 -64 -69 -60 -59 -63 -65 -56 -95 5 -17 23
-93 41 -170 26 -114 37 -145 62 -173 17 -19 26 -38 21 -41 -168 -118 -364
-203 -564 -247 -72 -16 -360 -33 -360 -22 0 3 29 29 65 57 l66 52 -6 67 -7 66
108 55 108 55 27 88 c19 61 39 103 69 142 l42 54 -20 53 -20 53 -103 47 -104
47 -110 -35 c-98 -31 -464 -132 -538 -149 l-28 -6 68 -63 68 -63 -30 -38 c-17
-20 -34 -43 -40 -51 -11 -16 29 -279 52 -337 9 -21 13 -40 11 -43 -3 -2 -45
10 -94 27 -225 79 -429 215 -608 406 l-51 54 -100 -10 c-55 -6 -128 -11 -162
-11 -35 0 -63 -3 -63 -6 0 -11 64 -100 127 -176 255 -308 633 -526 1041 -600
166 -30 439 -30 606 1 672 121 1218 625 1391 1283 18 67 18 68 -11 243 -15 96
-31 175 -34 175 -3 0 -12 -17 -19 -37z"/>
</g>
</svg>
