<?xml version="1.0" standalone="no"?>
<!DOCTYPE svg PUBLIC "-//W3C//DTD SVG 20010904//EN"
 "http://www.w3.org/TR/2001/REC-SVG-20010904/DTD/svg10.dtd">
<svg version="1.0" xmlns="http://www.w3.org/2000/svg"
 width="1335.000000pt" height="1347.000000pt" viewBox="0 0 1335.000000 1347.000000"
 preserveAspectRatio="xMidYMid meet">
<metadata>
Created by potrace 1.16, written by Peter Selinger 2001-2019
</metadata>
<g transform="translate(0.000000,1347.000000) scale(0.100000,-0.100000)"
fill="#000000" stroke="none">
<path d="M2550 9590 l0 -3870 -475 0 -475 0 0 795 0 795 -320 0 -320 0 0 -795
0 -795 -475 0 -475 0 0 -2860 0 -2860 6668 2 6667 3 3 4923 2 4922 -1750 0
-1750 0 -2 592 -3 591 -470 157 -470 157 -3 996 -2 997 -320 0 -320 0 0 -885
c0 -487 -3 -885 -7 -885 -3 0 -145 45 -315 100 l-308 101 0 784 0 785 -320 0
-320 0 0 -675 c0 -371 -3 -675 -8 -675 -4 0 -999 331 -2212 735 -1213 404
-2208 735 -2212 735 -5 0 -8 -1741 -8 -3870z m3660 1982 l2995 -998 3 -4962 2
-4962 -790 0 -790 0 0 493 0 492 83 28 c195 67 340 159 493 311 196 195 304
395 355 659 24 121 25 318 4 443 -64 371 -291 698 -617 886 -324 188 -715 225
-1060 102 -229 -82 -451 -249 -600 -449 -86 -114 -171 -294 -210 -440 -29
-111 -31 -133 -32 -295 -1 -190 8 -258 55 -401 78 -242 240 -468 449 -625 97
-74 269 -164 371 -195 l69 -21 0 -494 0 -494 -790 0 -790 0 0 2535 0 2535
-1110 0 -1110 0 0 3425 c0 2734 3 3425 13 3424 6 0 1360 -449 3007 -997z
m5860 -3472 l0 -470 -630 0 -630 0 0 470 0 470 630 0 630 0 0 -470z m0 -1585
l0 -475 -630 0 -630 0 0 475 0 475 630 0 630 0 0 -475z m0 -1590 l0 -475 -630
0 -630 0 0 475 0 475 630 0 630 0 0 -475z m-9840 -790 l0 -315 -475 0 -475 0
0 315 0 315 475 0 475 0 0 -315z m1900 0 l0 -315 -470 0 -470 0 0 315 0 315
470 0 470 0 0 -315z m7940 -795 l0 -470 -630 0 -630 0 0 470 0 470 630 0 630
0 0 -470z m-9840 -475 l0 -315 -475 0 -475 0 0 315 0 315 475 0 475 0 0 -315z
m1900 0 l0 -315 -470 0 -470 0 0 315 0 315 470 0 470 0 0 -315z m7940 -1110
l0 -475 -630 0 -630 0 0 475 0 475 630 0 630 0 0 -475z m-9840 -160 l0 -315
-475 0 -475 0 0 315 0 315 475 0 475 0 0 -315z m1900 0 l0 -315 -470 0 -470 0
0 315 0 315 470 0 470 0 0 -315z"/>
<path d="M3820 10480 l0 -320 953 2 952 3 3 318 2 317 -955 0 -955 0 0 -320z"/>
<path d="M3820 9210 l0 -320 2380 0 2380 0 0 320 0 320 -2380 0 -2380 0 0
-320z"/>
<path d="M3820 7940 l0 -320 1270 0 1270 0 0 320 0 320 -1270 0 -1270 0 0
-320z"/>
<path d="M6990 7941 l0 -318 791 -8 c434 -4 791 -6 793 -4 2 2 6 146 10 320
l7 316 -467 6 c-257 4 -617 7 -801 7 l-333 0 0 -319z"/>
<path d="M3820 6670 l0 -320 2380 0 2380 0 0 320 0 320 -2380 0 -2380 0 0
-320z"/>
<path d="M6040 5400 l0 -320 1270 0 1270 0 0 320 0 320 -1270 0 -1270 0 0
-320z"/>
</g>
</svg>
