<svg id="Layer_1" data-name="Layer 1" xmlns="http://www.w3.org/2000/svg" viewBox="0 0 19.47 19.47"><defs><style>.cls-1{fill:#fefefe;}.cls-2{fill:#faa803;}.cls-3{fill:#21bab7;}.cls-4{fill:#1fadaa;}.cls-5{fill:#eaebeb;}.cls-6{fill:#fbd996;}.cls-7{fill:#fbc659;}.cls-8{fill:#ef9d07;}.cls-9{fill:#fadfaa;}.cls-10{fill:#e5e6e6;}.cls-11{fill:#fdfaf9;}.cls-12{fill:#d5dad4;}.cls-13{fill:#d0d4d3;}.cls-14{fill:#fefaf3;}.cls-15{fill:#9ce0df;}.cls-16{fill:#fcd584;}.cls-17{fill:#fae1b1;}.cls-18{fill:#fbd079;}.cls-19{fill:#fcd483;}.cls-20{fill:#f8c76a;}.cls-21{fill:#c1b5a3;}.cls-22{fill:#fcdd9e;}.cls-23{fill:#fad07f;}.cls-24{fill:#28aca9;}.cls-25{fill:#86d9d8;}.cls-26{fill:#eceaea;}.cls-27{fill:#f1f1f2;}.cls-28{fill:#e4e3e0;}.cls-29{fill:#d9e0e1;}.cls-30{fill:#e4667b;}</style></defs><title>CREATIVE_</title><path class="cls-1" d="M143.76,289.52c-3,0-6,0-9,0-.52,0-.62-.1-.61-.62q0-9.12,0-18.24c0-.52.09-.62.61-.61q9.12,0,18.24,0c.52,0,.62.09.61.61q0,9.12,0,18.24c0,.52-.09.62-.61.62C149.92,289.5,146.84,289.52,143.76,289.52Z" transform="translate(-134.15 -270.07)"/><path class="cls-2" d="M137.52,283.24a1.25,1.25,0,0,1-.9-1.47,2.71,2.71,0,0,0-.42-2.3,1.67,1.67,0,0,1,.81-2.21l.19-.1-.19-.09c-.91-.54-.4-1.2-.06-1.71a1.51,1.51,0,0,1,2.15-.52c.29-1.83,2.07-2.82,4.6-2.54.68.68.34,1.55.41,2.35a9.66,9.66,0,0,1,0,1.52,2.5,2.5,0,0,1-.06.38c-.14.45.05.92-.1,1.38a6.37,6.37,0,0,1-.41.72c-.56.65-.22,1.34-.09,2a.94.94,0,0,1-.32.57,1.55,1.55,0,0,0-1,1.63,1.26,1.26,0,0,1-.27.91c-.09.09-.22.08-.31.16.09.05.19,0,.28,0,.5.55.4,1.33.76,1.94.24.45.94.49,1,1.11-1,.92-1.78.94-2.47.09,0-.43-.07-.71-.57-.65a1.54,1.54,0,0,1-1.57-1c-.22,0,0-.5-.38-.38a1.94,1.94,0,0,1-.82-.81l-.06,0a2.24,2.24,0,0,1,.1-1.55,1.07,1.07,0,0,0,.16-.14.65.65,0,0,0,.13-.16l-.1.14C137.68,282.67,137.68,283,137.52,283.24Z" transform="translate(-134.15 -270.07)"/><path class="cls-3" d="M143.69,278l-.06-1.19a.91.91,0,0,1,1,.12c.06.08.17.12.21.23,0-.12-.13-.13-.13-.23,0,.14,0-.24.06-.13s.11-.12.09-.12a.89.89,0,0,1-1.08-.21c0-1.38,0-2.77,0-4.15.13-.35.43-.29.7-.28a8,8,0,0,1,6.89,5.45,7.6,7.6,0,0,1-2.49,8.45c-.84-.47-1.12-1.39-1.65-2.11-.73-1-1.34-2-2.08-3a7.61,7.61,0,0,1-.54-.85C144.22,279.31,143.61,278.79,143.69,278Z" transform="translate(-134.15 -270.07)"/><path class="cls-4" d="M145.2,280.64a41.3,41.3,0,0,1,3.6,5.28c-.34.53-1,.62-1.41,1a2.71,2.71,0,0,1-3.36.31c-.36-.54,0-.77.41-1a1.35,1.35,0,0,0,.67-1.39c0-.49,0-1,0-1.46a3.49,3.49,0,0,0-.48-2.16A.64.64,0,0,1,145.2,280.64Z" transform="translate(-134.15 -270.07)"/><path class="cls-5" d="M144,287.09a3.9,3.9,0,0,0,3.35-.13l2.7.59,0,.35a37.5,37.5,0,0,1-12.37-.14,6.79,6.79,0,0,1,3.42-.64,1.82,1.82,0,0,0,2.4-.24C143.77,286.74,143.87,287,144,287.09Z" transform="translate(-134.15 -270.07)"/><path class="cls-6" d="M138,282.56a3.66,3.66,0,0,0-.28,1.7c-.33-.29-.19-.67-.19-1s0-.65.48-.67Z" transform="translate(-134.15 -270.07)"/><path class="cls-7" d="M137,277.07c.3-.16.58-.45.93,0-.25.37-.61.18-.93.2A.41.41,0,0,0,137,277.07Z" transform="translate(-134.15 -270.07)"/><path class="cls-8" d="M137.77,284.24l.91.72c.13.24,0,.31-.21.27C138.15,285,137.78,284.73,137.77,284.24Z" transform="translate(-134.15 -270.07)"/><path class="cls-9" d="M138.47,285.23l.21-.27.13-.29c.29.21.13.51.16.76A.52.52,0,0,1,138.47,285.23Z" transform="translate(-134.15 -270.07)"/><path class="cls-10" d="M145.42,283.28V285c-.72,1.49-1.34,1.74-3,1.19-.74-.55-.09-1.6-.78-2.17-.07-.05-.09-.1-.06-.13a.12.12,0,0,1,.09,0c.38-.26.14-.67.25-1,.5,0,.45.52.7.76.27.43.7.35,1.11.37a1.06,1.06,0,0,0,1.05-.38C144.94,283.4,145.11,283.16,145.42,283.28Z" transform="translate(-134.15 -270.07)"/><path class="cls-11" d="M142.32,283.75l-.43-.93a1.39,1.39,0,0,1,1.14-1.77.61.61,0,0,1,.51,0,.64.64,0,0,1,.17.3,2.62,2.62,0,0,0,.24,1.8.83.83,0,0,1-.2.86A1.33,1.33,0,0,1,142.32,283.75Z" transform="translate(-134.15 -270.07)"/><path class="cls-12" d="M143.69,278a5.56,5.56,0,0,1,.95,1.9.87.87,0,0,1-.74.94.5.5,0,0,1-.48-.25,3.68,3.68,0,0,1-.07-2.08Z" transform="translate(-134.15 -270.07)"/><path class="cls-13" d="M142.39,286.15a2.92,2.92,0,0,0,3-1.19,1.39,1.39,0,0,1-.91,1.62c-.23.11-.59.09-.47.51l-.53-.21C143.17,286.58,142.63,286.6,142.39,286.15Z" transform="translate(-134.15 -270.07)"/><path class="cls-14" d="M143.35,278.49a5.61,5.61,0,0,1,.15,2.12q-.12.15-.24,0C142.55,279.88,142.78,279.18,143.35,278.49Z" transform="translate(-134.15 -270.07)"/><path class="cls-15" d="M143.74,276.45l1.72.17c-.17.31-.62.09-.75.43v0l-1.09-.24A3.38,3.38,0,0,0,143.74,276.45Z" transform="translate(-134.15 -270.07)"/><path class="cls-16" d="M142.88,276.56c-.45.32-.78.2-1.42.24C142.07,276.55,142.33,276.27,142.88,276.56Z" transform="translate(-134.15 -270.07)"/><path class="cls-17" d="M140.71,278.63c.08.3-.12.34-.32.34s-.37,0-.31-.18a.74.74,0,0,1,.37-.41C140.67,278.28,140.64,278.53,140.71,278.63Z" transform="translate(-134.15 -270.07)"/><path class="cls-18" d="M138,282.57c0-.62.42-.6.92-.71-.15.61-.7.42-.93.7Z" transform="translate(-134.15 -270.07)"/><path class="cls-19" d="M138.57,277.64c-.07-.07-.24-.16-.27-.27s.16-.17.3-.17.32-.11.34.14S138.8,277.6,138.57,277.64Z" transform="translate(-134.15 -270.07)"/><path class="cls-20" d="M139.59,279.26a.58.58,0,0,1-.23.13c-.16,0-.32,0-.31-.22s.14-.15.22-.16S139.58,279,139.59,279.26Z" transform="translate(-134.15 -270.07)"/><path class="cls-21" d="M143.26,280.61a.49.49,0,0,0,.24,0l.54,0a.35.35,0,0,1,0,.3c-.15.17-.29.32-.54.19l-.49-.08C143.11,280.91,143.19,280.76,143.26,280.61Z" transform="translate(-134.15 -270.07)"/><path class="cls-22" d="M140.21,276.94a.82.82,0,0,1-.91,0A.76.76,0,0,1,140.21,276.94Z" transform="translate(-134.15 -270.07)"/><path class="cls-23" d="M141.64,283.81a.33.33,0,0,1,0,.17.59.59,0,0,1-.57.48A.7.7,0,0,1,141.64,283.81Z" transform="translate(-134.15 -270.07)"/><path class="cls-24" d="M144,280.91a2.44,2.44,0,0,1,0-.27l.6-.76c.33.15.41.48.56.76l-.46.47C144.41,281.38,144.2,281.21,144,280.91Z" transform="translate(-134.15 -270.07)"/><path class="cls-25" d="M144.71,277.05c.41,0,.64.21.88.65a1.13,1.13,0,0,1-.87-.67Z" transform="translate(-134.15 -270.07)"/><path class="cls-26" d="M144,280.91l.71.2a1.94,1.94,0,0,1,.68,2.17l-.46.48a1.32,1.32,0,0,1-1.07.34l-.13-.1,0-1c-.16-.5.21-1.06-.18-1.54l0-.33Z" transform="translate(-134.15 -270.07)"/><path class="cls-27" d="M146,287.72a.78.78,0,0,1-.82,0A.72.72,0,0,1,146,287.72Z" transform="translate(-134.15 -270.07)"/><path class="cls-28" d="M142.32,283.75a3.74,3.74,0,0,0,1.44.25h0c.08.05.1.1.08.15s-.05.08-.08.08C143.24,284.19,142.62,284.43,142.32,283.75Z" transform="translate(-134.15 -270.07)"/><path class="cls-29" d="M143.76,284.24V284l1.2-.25C144.72,284.32,144.22,284.24,143.76,284.24Z" transform="translate(-134.15 -270.07)"/><path class="cls-30" d="M143.56,281.45c.83.42.54,1,.18,1.54C143,282.55,143.37,282,143.56,281.45Z" transform="translate(-134.15 -270.07)"/></svg>