<?xml version="1.0" standalone="no"?>
<!DOCTYPE svg PUBLIC "-//W3C//DTD SVG 20010904//EN"
 "http://www.w3.org/TR/2001/REC-SVG-20010904/DTD/svg10.dtd">
<svg version="1.0" xmlns="http://www.w3.org/2000/svg"
 width="512.000000pt" height="512.000000pt" viewBox="0 0 512.000000 512.000000"
 preserveAspectRatio="xMidYMid meet">

<g transform="translate(0.000000,512.000000) scale(0.100000,-0.100000)"
fill="#000000" stroke="none">
<path d="M1640 4473 c-68 -9 -163 -34 -229 -60 -130 -51 -197 -117 -227 -222
-9 -31 -26 -67 -39 -81 -63 -70 -97 -193 -99 -367 -2 -109 -4 -125 -23 -145
-88 -95 -34 -379 101 -534 29 -32 55 -79 75 -131 83 -214 249 -369 438 -408
37 -8 68 -13 70 -12 1 2 -5 30 -14 62 -11 39 -17 97 -17 165 0 94 3 112 29
170 25 57 29 79 31 175 4 156 43 293 114 395 9 14 23 43 30 65 30 94 105 187
204 250 79 50 144 74 299 109 32 7 33 16 11 105 -44 178 -162 324 -320 397
-109 51 -317 83 -434 67z"/>
<path d="M3265 4470 c-128 -20 -261 -72 -337 -132 -39 -30 -98 -135 -98 -173
0 -12 -13 -38 -30 -56 -35 -41 -58 -86 -75 -150 l-13 -48 42 -6 c67 -12 194
-62 270 -107 101 -60 212 -175 263 -274 59 -114 73 -173 87 -372 10 -132 18
-186 31 -212 48 -93 57 -206 25 -339 -11 -46 -19 -86 -16 -88 2 -2 34 3 71 12
195 45 366 208 439 419 13 36 38 82 57 103 86 96 143 225 155 349 8 86 -8 170
-40 204 -22 24 -24 34 -29 195 -4 111 -11 190 -22 229 -59 214 -221 370 -440
426 -90 23 -256 33 -340 20z"/>
<path d="M2390 3766 c-238 -55 -355 -142 -385 -286 -4 -19 -18 -46 -30 -60
-64 -68 -108 -237 -104 -397 3 -84 1 -95 -19 -116 -30 -32 -42 -78 -42 -162 0
-132 48 -259 140 -374 29 -35 60 -88 71 -119 45 -131 153 -273 263 -346 76
-51 189 -86 273 -86 223 0 445 173 536 418 16 43 46 95 76 132 91 114 141 245
141 375 0 86 -12 130 -44 164 -23 25 -24 32 -28 201 -4 156 -7 183 -30 250
-38 109 -73 167 -147 240 -72 71 -170 126 -276 155 -79 22 -320 29 -395 11z"/>
<path d="M995 2644 c-306 -126 -429 -191 -519 -275 -121 -113 -190 -227 -252
-416 -41 -124 -73 -328 -58 -370 8 -23 24 -34 90 -60 108 -44 292 -89 482
-118 216 -34 205 -36 232 28 43 100 116 211 193 294 125 131 244 201 572 333
99 40 182 74 184 76 9 9 -56 130 -106 198 -29 39 -53 74 -53 77 0 3 -30 9 -67
13 -158 16 -296 88 -417 217 -41 43 -80 79 -88 78 -7 0 -94 -34 -193 -75z"/>
<path d="M3825 2626 c-66 -67 -109 -102 -162 -129 -76 -40 -202 -77 -262 -77
-35 0 -39 -4 -103 -103 -71 -109 -105 -173 -96 -182 3 -3 59 -26 124 -51 163
-63 319 -133 410 -185 166 -95 305 -245 391 -420 42 -86 51 -99 73 -99 14 0
96 11 182 25 290 45 548 123 570 171 15 31 -4 190 -37 310 -55 205 -142 361
-267 479 -71 66 -101 86 -222 145 -147 72 -481 211 -500 209 -6 -1 -51 -43
-101 -93z"/>
<path d="M1815 1946 c-377 -157 -445 -195 -559 -317 -118 -125 -213 -334 -250
-549 -20 -119 -21 -194 -1 -214 18 -17 98 -48 215 -82 667 -194 2085 -187
2725 13 134 42 174 62 182 92 10 40 -13 216 -42 316 -54 186 -124 320 -224
427 -109 117 -229 183 -614 339 l-157 63 -16 -24 c-9 -14 -50 -57 -90 -96
-270 -262 -639 -241 -900 51 -33 36 -61 65 -64 65 -3 0 -95 -38 -205 -84z"/>
</g>
</svg>
