<?xml version="1.0" standalone="no"?>
<!DOCTYPE svg PUBLIC "-//W3C//DTD SVG 20010904//EN"
 "http://www.w3.org/TR/2001/REC-SVG-20010904/DTD/svg10.dtd">
<svg version="1.0" xmlns="http://www.w3.org/2000/svg"
 width="512.000000pt" height="512.000000pt" viewBox="0 0 512.000000 512.000000"
 preserveAspectRatio="xMidYMid meet">

<g transform="translate(0.000000,512.000000) scale(0.100000,-0.100000)"
fill="#000000" stroke="none">
<path d="M1090 4469 c-239 -40 -398 -271 -439 -640 l-11 -94 161 -269 161
-268 -158 -367 -159 -366 -3 -591 -2 -592 67 -7 c212 -22 409 -158 502 -346
40 -82 70 -191 71 -256 l0 -33 1280 0 1280 0 0 33 c1 65 31 174 71 256 93 188
290 324 502 346 l67 7 -2 592 -3 591 -159 367 -158 366 160 269 161 268 -10
89 c-42 368 -209 608 -449 646 -83 13 -2851 12 -2930 -1z m1575 -323 c154 -41
275 -164 309 -316 9 -38 16 -74 16 -79 0 -8 -136 -11 -430 -11 -294 0 -430 3
-430 11 0 5 7 41 16 79 52 229 294 377 519 316z m-184 -748 c87 -30 163 -112
175 -190 4 -21 8 -38 9 -38 1 0 19 7 38 15 49 20 103 19 155 -5 42 -19 45 -19
75 -3 22 12 55 18 107 18 90 0 138 -22 196 -88 39 -43 39 -44 74 -31 52 19
157 17 214 -3 99 -36 190 -148 205 -252 6 -46 6 -46 54 -53 135 -19 244 -129
266 -267 l8 -51 -533 0 -534 0 0 -225 c0 -126 -5 -247 -11 -277 -60 -284 -362
-430 -619 -298 -63 32 -152 125 -183 192 -41 86 -47 138 -47 384 l0 224 -480
0 -479 0 3 63 c9 148 119 258 261 259 l54 1 12 50 c9 38 23 62 59 97 69 70
142 83 246 43 9 -3 14 2 14 16 0 59 73 156 144 193 29 15 61 22 106 22 l65 1
19 49 c23 61 91 129 149 149 52 19 132 21 178 5z"/>
<path d="M2079 2879 c-27 -56 -49 -102 -47 -104 2 -1 49 -26 105 -54 l103 -51
50 100 c27 55 50 102 50 104 0 7 -186 106 -199 106 -6 0 -34 -45 -62 -101z"/>
<path d="M3088 2929 c-54 -27 -98 -52 -98 -55 0 -4 97 -191 106 -202 3 -4 204
97 204 103 0 18 -95 205 -104 204 -6 0 -55 -22 -108 -50z"/>
<path d="M2488 2101 c-32 -28 -33 -33 -36 -114 -3 -64 0 -92 13 -116 36 -71
144 -76 186 -8 17 27 19 46 17 120 -3 86 -4 90 -36 118 -45 40 -99 40 -144 0z"/>
</g>
</svg>
